<svg width="46" height="46" viewBox="0 0 46 46" fill="none" xmlns="http://www.w3.org/2000/svg">
<path d="M16.56 7.33109C16.5097 7.33827 16.463 7.34546 16.4163 7.35984C16.3983 7.36702 16.3767 7.3778 16.3587 7.38859C16.3587 7.38859 15.4567 7.57905 14.605 8.25109C14.0372 8.69671 13.4622 9.40468 13.1388 10.3498C12.6572 9.73171 11.9923 9.3328 11.4138 9.14234C10.4722 8.82968 9.6025 8.88359 9.6025 8.88359C9.09578 8.91593 8.70766 9.35437 8.74 9.86108C8.77234 10.3678 9.21078 10.7559 9.7175 10.7236C9.7175 10.7236 10.2745 10.7092 10.8387 10.8961C11.1011 10.9823 11.3383 11.1081 11.5288 11.2698C6.49031 12.2581 2.29281 16.4161 1.92625 21.3898C1.73578 21.4653 1.54531 21.5264 1.3225 21.6773C0.66125 22.123 0 23.0573 0 24.3798C0 25.7239 0.973906 26.705 2.185 27.1111C3.46797 31.7686 7.69063 34.3094 11.5288 35.0173C12.1613 35.5276 12.9303 35.8798 13.8 35.8798C14.6697 35.8798 15.4388 35.5276 16.0713 35.0173C18.4934 34.5681 21.0773 33.4037 22.9713 31.4236C24.8867 33.4109 27.467 34.5645 29.9 35.0173C30.5325 35.5348 31.3195 35.8798 32.2 35.8798C33.0697 35.8798 33.8387 35.5276 34.4713 35.0173C38.3094 34.3094 42.532 31.7686 43.815 27.1111C45.0261 26.705 46 25.7239 46 24.3798C46 23.1292 45.3352 22.2236 44.7062 21.7636C44.4331 21.5659 44.2031 21.4509 43.9875 21.3611C43.3406 16.0675 38.7802 11.5969 33.235 11.0973C33.4111 10.4289 33.7705 10.0192 34.155 9.71733C34.6833 9.30405 35.1613 9.17109 35.1613 9.17109C35.668 9.11718 36.0381 8.65718 35.9806 8.15046C35.9267 7.64374 35.4667 7.27359 34.96 7.33109C34.9097 7.33827 34.863 7.34546 34.8162 7.35984C34.7983 7.36702 34.7767 7.3778 34.7588 7.38859C34.7588 7.38859 33.8567 7.57905 33.005 8.25109C32.4372 8.69671 31.8622 9.40468 31.5387 10.3498C31.0572 9.73171 30.3923 9.3328 29.8138 9.14234C28.8722 8.82968 28.0025 8.88359 28.0025 8.88359C27.4958 8.91593 27.1077 9.35437 27.14 9.86108C27.1723 10.3678 27.6108 10.7559 28.1175 10.7236C28.1175 10.7236 28.6745 10.7092 29.2388 10.8961C29.5083 10.9859 29.7634 11.0973 29.9575 11.2698C27.1831 11.8053 24.6711 13.2931 22.885 15.3523C20.9013 13.0164 18.037 11.3848 14.835 11.0973C15.0111 10.4289 15.3705 10.0192 15.755 9.71733C16.2833 9.30405 16.7612 9.17109 16.7612 9.17109C17.268 9.11718 17.6381 8.65718 17.5806 8.15046C17.5267 7.64374 17.0667 7.27359 16.56 7.33109ZM13.6275 12.8798C13.6958 12.887 13.7605 12.887 13.8288 12.8798C19.0469 12.8942 23.6541 17.3037 23.92 22.1373L23.9775 22.9998H24.725C24.7502 23.007 24.7753 23.0142 24.8113 23.0286C24.9263 23.0717 25.07 23.1544 25.2138 23.2586C25.5048 23.4706 25.76 23.715 25.76 24.3798C25.76 25.0375 25.2533 25.5406 24.61 25.5873L23.9487 25.6448L23.7763 26.3061C22.8383 30.4209 19.0397 32.6706 15.5825 33.2636L15.295 33.2923L15.0938 33.4936C14.7595 33.8242 14.3103 34.0398 13.8 34.0398C13.2897 34.0398 12.8405 33.8242 12.5063 33.4936L12.305 33.2923L12.0175 33.2636C8.56031 32.6706 4.76172 30.4209 3.82375 26.3061L3.65125 25.6448L2.99 25.5873C2.34672 25.5406 1.84 25.0375 1.84 24.3798C1.84 23.5892 2.09875 23.3772 2.3575 23.2011C2.48688 23.1148 2.62703 23.0573 2.73125 23.0286C2.78156 23.0142 2.82469 23.0034 2.84625 22.9998H3.68V22.0798C3.68 17.62 7.85594 13.5591 12.6213 12.9661C12.8584 13.0451 13.1172 13.0236 13.34 12.9086C13.437 12.905 13.5305 12.8798 13.6275 12.8798ZM32.0275 12.8798C32.0958 12.887 32.1605 12.887 32.2288 12.8798C32.2863 12.8798 32.3438 12.8798 32.4012 12.8798C37.5511 12.9912 42.0577 17.3576 42.32 22.1373L42.3775 22.9998H43.125C43.1502 23.007 43.1753 23.0142 43.2113 23.0286C43.3263 23.0717 43.47 23.1544 43.6138 23.2586C43.9048 23.4706 44.16 23.715 44.16 24.3798C44.16 25.0375 43.6533 25.5406 43.01 25.5873L42.3488 25.6448L42.1763 26.3061C41.2383 30.4209 37.4397 32.6706 33.9825 33.2636L33.695 33.2923L33.4938 33.4936C33.1595 33.8242 32.7103 34.0398 32.2 34.0398C31.6897 34.0398 31.2405 33.8242 30.9062 33.4936L30.705 33.2923L30.4175 33.2636C28.1786 32.8791 25.7672 31.7506 24.1213 29.9286C24.6711 29.0912 25.1239 28.1605 25.415 27.1111C26.5111 26.7445 27.4095 25.9072 27.5713 24.7536C27.7186 24.8075 27.8911 24.8398 28.06 24.8398C28.8219 24.8398 29.44 24.2217 29.44 23.4598C29.44 22.698 28.8219 22.0798 28.06 22.0798C27.6503 22.0798 27.2766 22.2559 27.025 22.5398C26.8058 22.22 26.5578 21.9469 26.3062 21.7636C26.0331 21.5659 25.8031 21.4509 25.5875 21.3611C25.3934 19.7762 24.8256 18.2597 24.0063 16.9048C25.6558 14.8348 28.2181 13.3255 30.9638 12.9661C30.9817 12.9661 31.0033 12.9661 31.0212 12.9661C31.2584 13.0451 31.5172 13.0236 31.74 12.9086C31.837 12.905 31.9305 12.8798 32.0275 12.8798ZM9.66 22.0798C8.89812 22.0798 8.28 22.698 8.28 23.4598C8.28 24.2217 8.89812 24.8398 9.66 24.8398C10.4219 24.8398 11.04 24.2217 11.04 23.4598C11.04 22.698 10.4219 22.0798 9.66 22.0798ZM17.94 22.0798C17.1781 22.0798 16.56 22.698 16.56 23.4598C16.56 24.2217 17.1781 24.8398 17.94 24.8398C18.7019 24.8398 19.32 24.2217 19.32 23.4598C19.32 22.698 18.7019 22.0798 17.94 22.0798ZM36.34 22.0798C35.5781 22.0798 34.96 22.698 34.96 23.4598C34.96 24.2217 35.5781 24.8398 36.34 24.8398C37.1019 24.8398 37.72 24.2217 37.72 23.4598C37.72 22.698 37.1019 22.0798 36.34 22.0798ZM10.465 27.5423C10.0948 27.5855 9.78578 27.8478 9.68516 28.2072C9.58453 28.5666 9.71031 28.9511 10.005 29.1811C10.005 29.1811 11.5036 30.3598 13.8 30.3598C16.0964 30.3598 17.595 29.1811 17.595 29.1811C17.9939 28.8648 18.055 28.2826 17.7388 27.8873C17.4225 27.4884 16.8403 27.4273 16.445 27.7436C16.445 27.7436 15.5034 28.5198 13.8 28.5198C12.0966 28.5198 11.155 27.7436 11.155 27.7436C10.9609 27.5855 10.713 27.5136 10.465 27.5423ZM28.865 27.5423C28.4948 27.5855 28.1858 27.8478 28.0852 28.2072C27.9845 28.5666 28.1103 28.9511 28.405 29.1811C28.405 29.1811 29.9036 30.3598 32.2 30.3598C34.4964 30.3598 35.995 29.1811 35.995 29.1811C36.3939 28.8648 36.455 28.2826 36.1388 27.8873C35.8225 27.4884 35.2403 27.4273 34.845 27.7436C34.845 27.7436 33.9034 28.5198 32.2 28.5198C30.4966 28.5198 29.555 27.7436 29.555 27.7436C29.3609 27.5855 29.113 27.5136 28.865 27.5423Z" fill="#101828"/>
</svg>
