<svg width="46" height="46" viewBox="0 0 46 46" fill="none" xmlns="http://www.w3.org/2000/svg">
<path d="M8.27992 2.75977C6.30795 2.75977 4.65188 4.33753 3.30617 6.02469C2.63332 6.86826 2.05559 7.77033 1.63328 8.62477C1.21097 9.4792 0.919922 10.254 0.919922 11.0398C0.919922 12.4434 1.77552 13.5977 2.8282 14.3802C3.61214 14.9629 4.52967 15.375 5.46961 15.5481C4.37973 16.9933 3.67992 18.7522 3.67992 20.6998C3.67992 25.5156 7.60414 29.4398 12.4199 29.4398H17.8195C17.7277 29.6592 17.6358 29.8789 17.5446 30.1459C17.0571 31.5737 16.5822 33.7457 16.5599 36.7926C16.5588 36.958 16.6022 37.1206 16.6857 37.2634C16.6857 37.2634 17.6253 38.8411 19.7799 40.3181C21.9345 41.795 25.3573 43.2398 30.3599 43.2398C35.3625 43.2398 38.7853 41.795 40.9399 40.3181C43.0945 38.8411 44.0341 37.2634 44.0341 37.2634C44.1176 37.1206 44.1611 36.958 44.1599 36.7926C44.1376 33.7457 43.6627 31.5737 43.1752 30.1459C42.8302 29.1354 42.6283 28.9097 42.4367 28.6024C42.5423 28.4532 42.5721 28.4628 42.6829 28.2413C42.9678 27.6715 43.2399 26.8331 43.2399 25.7598C43.2399 22.1893 41.1987 19.6648 41.1987 19.6648C41.112 19.5566 41.0021 19.4693 40.877 19.4096C40.7519 19.3499 40.6149 19.3191 40.4763 19.3198C40.2686 19.3204 40.0672 19.3914 39.9049 19.521L35.6823 22.8991C35.0354 22.6567 33.3321 22.0798 30.3599 22.0798C29.2371 22.0798 28.2723 22.176 27.4454 22.3044C27.5429 21.7831 27.5999 21.2487 27.5999 20.6998C27.5999 18.7522 26.9001 16.9933 25.8102 15.5481C26.7502 15.375 27.6677 14.9629 28.4516 14.3802C29.5043 13.5977 30.3599 12.4434 30.3599 11.0398C30.3599 10.254 30.0689 9.4792 29.6466 8.62477C29.2243 7.77033 28.6465 6.86826 27.9737 6.02469C26.628 4.33753 24.9719 2.75977 22.9999 2.75977C21.9499 2.75977 20.9999 3.20755 20.328 3.91875C18.9249 3.18145 17.3312 2.75977 15.6399 2.75977C13.9486 2.75977 12.3549 3.18145 10.9519 3.91875C10.28 3.20755 9.32992 2.75977 8.27992 2.75977ZM8.27992 4.59977C8.68897 4.59977 9.05375 4.74147 9.35625 4.96273C7.02329 6.8186 5.51992 9.67534 5.51992 12.8798C5.51992 13.1474 5.5416 13.4086 5.57023 13.6668C5.0013 13.5207 4.40796 13.2613 3.92609 12.9031C3.18685 12.3537 2.75992 11.6684 2.75992 11.0398C2.75992 10.8093 2.92888 10.1566 3.28281 9.44055C3.63675 8.72445 4.15153 7.91348 4.74367 7.17109C5.92796 5.68632 7.49189 4.59977 8.27992 4.59977ZM15.6399 4.59977C20.2239 4.59977 23.9199 8.29578 23.9199 12.8798C23.9199 13.6294 23.8108 14.3559 23.6198 15.0594C23.5783 15.2123 23.577 15.3735 23.616 15.5271C23.6551 15.6807 23.7331 15.8217 23.8427 15.9363C25.0295 17.1776 25.7599 18.8458 25.7599 20.6998C25.7599 24.5209 22.6811 27.5998 18.8599 27.5998H16.5599V23.7545C17.3078 23.484 17.8839 22.9204 18.3119 22.3834C18.6066 22.0137 18.8372 21.6369 19.0073 21.2927C19.1774 20.9485 19.3199 20.7398 19.3199 20.2398C19.3199 19.7398 19.0197 19.3707 18.7521 19.1598C18.4845 18.949 18.1987 18.8215 17.8824 18.716C17.2498 18.5051 16.4851 18.3998 15.6399 18.3998C14.7948 18.3998 14.03 18.5051 13.3974 18.716C13.0811 18.8215 12.7953 18.949 12.5277 19.1598C12.2601 19.3707 11.9599 19.7398 11.9599 20.2398C11.9599 20.7398 12.1025 20.9485 12.2726 21.2927C12.4427 21.6369 12.6733 22.0137 12.968 22.3834C13.396 22.9204 13.972 23.484 14.7199 23.7545V27.5998H12.4199C8.59875 27.5998 5.51992 24.5209 5.51992 20.6998C5.51992 18.8458 6.25037 17.1776 7.43719 15.9363C7.54672 15.8217 7.62478 15.6807 7.66382 15.5271C7.70286 15.3735 7.70154 15.2123 7.66 15.0594C7.46905 14.3559 7.35992 13.6294 7.35992 12.8798C7.35992 8.29578 11.0559 4.59977 15.6399 4.59977ZM22.9999 4.59977C23.788 4.59977 25.3519 5.68632 26.5362 7.17109C27.1283 7.91348 27.6431 8.72445 27.997 9.44055C28.351 10.1566 28.5199 10.8093 28.5199 11.0398C28.5199 11.6684 28.093 12.3537 27.3538 12.9031C26.8719 13.2613 26.2785 13.5207 25.7096 13.6668C25.7382 13.4086 25.7599 13.1474 25.7599 12.8798C25.7599 9.67534 24.2565 6.8186 21.9236 4.96273C22.2261 4.74147 22.5909 4.59977 22.9999 4.59977ZM12.4199 13.7998C12.0539 13.7998 11.7029 13.9452 11.4441 14.204C11.1853 14.4628 11.0399 14.8138 11.0399 15.1798C11.0399 15.5458 11.1853 15.8968 11.4441 16.1556C11.7029 16.4144 12.0539 16.5598 12.4199 16.5598C12.7859 16.5598 13.1369 16.4144 13.3957 16.1556C13.6545 15.8968 13.7999 15.5458 13.7999 15.1798C13.7999 14.8138 13.6545 14.4628 13.3957 14.204C13.1369 13.9452 12.7859 13.7998 12.4199 13.7998ZM18.8599 13.7998C18.4939 13.7998 18.1429 13.9452 17.8841 14.204C17.6253 14.4628 17.4799 14.8138 17.4799 15.1798C17.4799 15.5458 17.6253 15.8968 17.8841 16.1556C18.1429 16.4144 18.4939 16.5598 18.8599 16.5598C19.2259 16.5598 19.5769 16.4144 19.8357 16.1556C20.0945 15.8968 20.2399 15.5458 20.2399 15.1798C20.2399 14.8138 20.0945 14.4628 19.8357 14.204C19.5769 13.9452 19.2259 13.7998 18.8599 13.7998ZM15.6399 20.2398C16.3192 20.2398 16.934 20.3405 17.3002 20.4626C17.3307 20.4727 17.3257 20.4755 17.3523 20.4859C17.243 20.7057 17.0749 20.9832 16.8726 21.237C16.4631 21.7507 15.9491 22.0798 15.6399 22.0798C15.3308 22.0798 14.8167 21.7507 14.4073 21.237C14.2049 20.9832 14.0369 20.7057 13.9275 20.4859C13.9542 20.4755 13.9492 20.4727 13.9796 20.4626C14.3459 20.3405 14.9606 20.2398 15.6399 20.2398ZM40.232 21.6162C40.7101 22.3905 41.3999 23.714 41.3999 25.7598C41.3999 26.5264 41.2121 27.068 41.037 27.4183C40.8618 27.7686 40.7495 27.8693 40.7495 27.8693C40.5925 28.0264 40.4976 28.2351 40.4824 28.4567C40.4672 28.6783 40.5327 28.8979 40.6668 29.075C40.6668 29.075 41.0106 29.5057 41.4323 30.7407C41.8379 31.9288 42.2479 33.8417 42.2984 36.5302C42.1393 36.7804 41.5297 37.6841 39.8995 38.8015C38.0278 40.0845 35.0118 41.3998 30.3599 41.3998C25.708 41.3998 22.6921 40.0845 20.8203 38.8015C19.1902 37.6841 18.5806 36.7804 18.4215 36.5302C18.4719 33.8417 18.8819 31.9288 19.2876 30.7407C19.5373 30.0094 19.7299 29.6217 19.8698 29.3769C22.9694 29.0172 25.5771 27.0274 26.8183 24.2899C27.6896 24.0978 28.8751 23.9198 30.3599 23.9198C33.6608 23.9198 35.5044 24.7589 35.5044 24.7589C35.6586 24.8281 35.8289 24.8534 35.9966 24.8322C36.1642 24.811 36.3228 24.744 36.4549 24.6385L40.232 21.6162ZM27.1399 30.3598C26.7739 30.3598 26.4229 30.5052 26.1641 30.764C25.9053 31.0228 25.7599 31.3738 25.7599 31.7398C25.7599 32.1058 25.9053 32.4568 26.1641 32.7156C26.4229 32.9744 26.7739 33.1198 27.1399 33.1198C27.5059 33.1198 27.8569 32.9744 28.1157 32.7156C28.3745 32.4568 28.5199 32.1058 28.5199 31.7398C28.5199 31.3738 28.3745 31.0228 28.1157 30.764C27.8569 30.5052 27.5059 30.3598 27.1399 30.3598ZM33.5799 30.3598C33.2139 30.3598 32.8629 30.5052 32.6041 30.764C32.3453 31.0228 32.1999 31.3738 32.1999 31.7398C32.1999 32.1058 32.3453 32.4568 32.6041 32.7156C32.8629 32.9744 33.2139 33.1198 33.5799 33.1198C33.9459 33.1198 34.2969 32.9744 34.5557 32.7156C34.8145 32.4568 34.9599 32.1058 34.9599 31.7398C34.9599 31.3738 34.8145 31.0228 34.5557 30.764C34.2969 30.5052 33.9459 30.3598 33.5799 30.3598ZM30.3599 34.0398C28.8355 34.0398 27.5999 34.4519 27.5999 34.9598C27.5999 35.2777 28.3208 36.2802 29.0859 36.9848C28.7551 37.3407 28.2594 37.7198 27.5999 37.7198V39.5598C28.8945 39.5598 29.774 38.9376 30.3599 38.3199C30.9458 38.9376 31.8254 39.5598 33.1199 39.5598V37.7198C32.4605 37.7198 31.9648 37.3407 31.6339 36.9848C32.399 36.2802 33.1199 35.2777 33.1199 34.9598C33.1199 34.4519 31.8844 34.0398 30.3599 34.0398Z" fill="#101828"/>
</svg>
