<svg width="46" height="46" viewBox="0 0 46 46" fill="none" xmlns="http://www.w3.org/2000/svg">
<g clip-path="url(#clip0_1849_3324)">
<path d="M26.6804 7.36035C25.2237 7.36035 24.0142 7.93973 23.2322 8.81941C22.4503 9.6991 22.0804 10.8359 22.0804 11.9604C22.0804 13.0848 22.4503 14.2216 23.2322 15.1013C24.0142 15.981 25.2237 16.5604 26.6804 16.5604C28.1371 16.5604 29.3467 15.981 30.1286 15.1013C30.9106 14.2216 31.2804 13.0848 31.2804 11.9604C31.2804 10.8359 30.9106 9.6991 30.1286 8.81941C29.3467 7.93973 28.1371 7.36035 26.6804 7.36035ZM10.1204 8.28035C8.66375 8.28035 7.45415 8.85973 6.67221 9.73941C5.89027 10.6191 5.52041 11.7559 5.52041 12.8804C5.52041 14.0048 5.89027 15.1416 6.67221 16.0213C7.45415 16.901 8.66375 17.4804 10.1204 17.4804C11.5771 17.4804 12.7867 16.901 13.5686 16.0213C14.3506 15.1416 14.7204 14.0048 14.7204 12.8804C14.7204 11.7559 14.3506 10.6191 13.5686 9.73941C12.7867 8.85973 11.5771 8.28035 10.1204 8.28035ZM26.6804 9.20035C27.6771 9.20035 28.3075 9.54098 28.7522 10.0413C29.1969 10.5416 29.4404 11.2448 29.4404 11.9604C29.4404 12.6759 29.1969 13.3791 28.7522 13.8794C28.3075 14.3797 27.6771 14.7204 26.6804 14.7204C25.6837 14.7204 25.0533 14.3797 24.6086 13.8794C24.1639 13.3791 23.9204 12.6759 23.9204 11.9604C23.9204 11.2448 24.1639 10.5416 24.6086 10.0413C25.0533 9.54098 25.6837 9.20035 26.6804 9.20035ZM10.1204 10.1204C11.1171 10.1204 11.7475 10.461 12.1922 10.9613C12.6369 11.4616 12.8804 12.1648 12.8804 12.8804C12.8804 13.5959 12.6369 14.2991 12.1922 14.7994C11.7475 15.2997 11.1171 15.6404 10.1204 15.6404C9.12375 15.6404 8.49334 15.2997 8.04862 14.7994C7.60389 14.2991 7.36041 13.5959 7.36041 12.8804C7.36041 12.1648 7.60389 11.4616 8.04862 10.9613C8.49334 10.461 9.12375 10.1204 10.1204 10.1204ZM35.0485 16.0572C34.6466 16.0782 34.2445 16.143 33.8499 16.2531L27.728 17.9619L27.8376 17.9386C25.5928 18.2777 23.9204 20.2181 23.9204 22.4882V28.5204C23.9204 29.71 24.6957 30.7239 25.7604 31.1079V35.8804C25.7604 36.1243 25.8574 36.3583 26.0299 36.5309C26.2024 36.7034 26.4364 36.8003 26.6804 36.8004H45.0804C45.3244 36.8003 45.5584 36.7034 45.7309 36.5309C45.9035 36.3583 46.0004 36.1243 46.0004 35.8804V30.3604C46.0004 30.1164 45.9035 29.8824 45.7309 29.7098C45.5584 29.5373 45.3244 29.4404 45.0804 29.4404H43.0517C43.0781 29.3689 43.1102 29.3008 43.1308 29.2265V29.2247L44.6959 23.5879C45.0096 22.4584 44.5709 21.2451 43.607 20.5782L38.4715 17.0293C37.7971 16.563 37.0367 16.258 36.247 16.1255C35.8521 16.0593 35.4504 16.0363 35.0485 16.0572ZM35.1437 17.8936C35.9476 17.8521 36.751 18.0758 37.4257 18.5423L42.5594 22.0911C42.8853 22.3166 43.03 22.7145 42.9242 23.0956L41.3573 28.7324V28.7342C41.2404 29.1556 40.8654 29.4404 40.4283 29.4404C39.7749 29.4404 39.3298 28.8665 39.4921 28.2346L40.5433 24.1504C40.5926 23.9594 40.5792 23.7576 40.5051 23.5748C40.431 23.392 40.3002 23.2379 40.1318 23.1351L36.3602 20.8351C36.2571 20.7721 36.1425 20.73 36.0232 20.7113C35.9038 20.6925 35.7819 20.6975 35.6644 20.7259C35.5469 20.7542 35.4362 20.8055 35.3386 20.8766C35.2409 20.9478 35.1582 21.0375 35.0952 21.1406C35.0322 21.2437 34.9901 21.3582 34.9714 21.4776C34.9526 21.597 34.9576 21.7189 34.9859 21.8364C35.0143 21.9538 35.0655 22.0645 35.1367 22.1622C35.2078 22.2599 35.2975 22.3426 35.4007 22.4056L38.5919 24.3516L37.7114 27.7764C37.563 28.3542 37.6271 28.9256 37.8228 29.4404H35.7025C35.8586 29.0145 35.9234 28.5487 35.8445 28.0639L35.8427 28.0621C35.6149 26.6712 34.3573 25.7604 33.0216 25.7604H29.462L29.4404 23.9096C29.44 23.7881 29.4155 23.668 29.3683 23.5561C29.3212 23.4441 29.2524 23.3426 29.1659 23.2574C29.0793 23.1722 28.9768 23.105 28.8641 23.0596C28.7515 23.0142 28.631 22.9916 28.5095 22.993C28.3881 22.9945 28.2682 23.0199 28.1566 23.0679C28.0451 23.1159 27.9441 23.1855 27.8596 23.2727C27.7751 23.36 27.7087 23.463 27.6642 23.576C27.6197 23.689 27.598 23.8097 27.6004 23.9311L27.631 26.6911C27.6338 26.9333 27.732 27.1645 27.9042 27.3347C28.0765 27.5049 28.3088 27.6003 28.551 27.6004H33.0216C33.5186 27.6004 33.9594 27.9427 34.0278 28.3604C34.127 28.9764 33.6909 29.4404 33.1204 29.4404H26.6804C26.1606 29.4404 25.7604 29.0402 25.7604 28.5204V22.4882C25.7604 21.1152 26.7528 19.9642 28.1125 19.7588C28.1495 19.7526 28.1861 19.7442 28.2221 19.7336L34.3441 18.0248C34.6073 17.9514 34.8757 17.9075 35.1437 17.8936ZM8.09893 18.4004C5.43689 18.4004 3.04368 20.0436 2.08838 22.5278L0.16393 27.5303C-0.122561 28.2749 -0.0377044 29.0459 0.280727 29.6991C0.192053 29.7849 0.121542 29.8876 0.0733858 30.0012C0.02523 30.1148 0.000414031 30.237 0.000414039 30.3604V35.8804C0.000438435 36.1243 0.0973745 36.3583 0.269903 36.5309C0.442431 36.7034 0.676422 36.8003 0.920414 36.8004H19.3204C19.5644 36.8003 19.7984 36.7034 19.9709 36.5309C20.1435 36.3583 20.2404 36.1243 20.2404 35.8804V30.3604C20.2404 30.2374 20.2158 30.1157 20.1679 30.0024C20.1201 29.8892 20.05 29.7866 19.9619 29.7009C20.2812 29.0474 20.3654 28.2755 20.0787 27.5303L18.1542 22.5278C17.198 20.0439 14.8039 18.4004 12.1419 18.4004H10.1204H8.09893ZM8.09893 20.2404H10.1204H12.1419C14.0486 20.2404 15.7514 21.4097 16.4364 23.189L18.3609 28.1897C18.6036 28.8207 18.1786 29.4404 17.502 29.4404H11.761C11.9199 29.0117 12.004 28.5526 11.9245 28.0639C11.8982 27.9024 11.8549 27.7483 11.8023 27.6004H14.6899C14.8421 27.6002 14.9919 27.5623 15.1258 27.49C15.2598 27.4177 15.3737 27.3133 15.4574 27.1862C15.5411 27.059 15.592 26.9131 15.6054 26.7615C15.6188 26.6098 15.5944 26.4573 15.5344 26.3174L14.3521 23.5574C14.2815 23.3861 14.161 23.2401 14.0061 23.1385C13.8513 23.0369 13.6694 22.9843 13.4842 22.9878C13.3321 22.9906 13.1832 23.031 13.0506 23.1054C12.9181 23.1799 12.806 23.286 12.7245 23.4144C12.643 23.5427 12.5945 23.6892 12.5835 23.8409C12.5724 23.9925 12.5991 24.1445 12.6612 24.2833L13.2937 25.7604H9.29924C9.2608 25.7603 9.22239 25.7627 9.18424 25.7675C9.15648 25.7668 9.12942 25.7604 9.10159 25.7604H6.94713L7.57963 24.2833C7.62861 24.1721 7.65506 24.0522 7.65746 23.9307C7.65986 23.8092 7.63816 23.6884 7.59361 23.5753C7.54906 23.4623 7.48255 23.3591 7.39792 23.2719C7.31329 23.1847 7.21221 23.115 7.10053 23.0671C6.98885 23.0192 6.86877 22.9938 6.74724 22.9925C6.6257 22.9912 6.50512 23.0141 6.39245 23.0596C6.27978 23.1052 6.17726 23.1727 6.09081 23.2581C6.00436 23.3435 5.93569 23.4453 5.88877 23.5574L4.70643 26.3174C4.6464 26.4573 4.622 26.6098 4.63544 26.7615C4.64888 26.9131 4.69972 27.059 4.78341 27.1862C4.8671 27.3133 4.98103 27.4177 5.11499 27.49C5.24895 27.5623 5.39875 27.6002 5.55096 27.6004H9.10159C9.59855 27.6004 10.04 27.9421 10.1078 28.3586C10.2083 28.9756 9.77151 29.4404 9.20041 29.4404H2.73885C2.06361 29.4404 1.639 28.8207 1.88174 28.1897L3.8044 23.189C4.48854 21.41 6.19225 20.2404 8.09893 20.2404ZM1.84041 31.2804H2.73885H17.502H18.4004V34.9604H1.84041V31.2804ZM27.6004 31.2804H33.1204H44.1604V34.9604H27.6004V31.2804Z" fill="#101828"/>
</g>
<defs>
<clipPath id="clip0_1849_3324">
<rect width="46" height="46" fill="white"/>
</clipPath>
</defs>
</svg>
